# xmcd
#
# Track frame offsets:
#	150
#	10599
#	21822
#	31885
#	44135
#	57120
#	69163
#	81763
#	93860
#	103646
#	113282
#	127412
#	136687
#	146746
#	158964
#	170930
#	180917
#	194063
#	207047
#	219625
#	226958
#	239034
#	251007
#	262890
#	276794
#
# Disc length: 3859 seconds
#
# Revision: 4
# Processed by: cddbd v1.5.2PL0 Copyright (c) Steve Scherf et al.
# Submitted via: audiograbber 1.83.01
#
DISCID=610f1119
DTITLE=Various Artist - Big Boss Man - The Vee-Jay Story  [CD2)
DYEAR=2012
DGENRE=Oldies
TTITLE0=Dee Clark - Seven Nights
TTITLE1=El Dorados - I'll Be Forever Loving You
TTITLE2=Jimmy Reed - Ain't That Lovin' You Baby
TTITLE3=Bobby Parker - You Got What It Takes
TTITLE4=Dells - Zing Zing Zing
TTITLE5=Donnie Elbert - Baby Let Me Love You Tonight
TTITLE6=John Lee Hooker - Mambo Chillun
TTITLE7=Jerry Butler - For Your Precious Love
TTITLE8=Goldenrods - Wish I Was Back In School
TTITLE9=Gene Allison - You Can Make It If You Try
TTITLE10=Floyd Jones - Floyd's Blues
TTITLE11=Gladys Knight and The Pips - Every Beat Of Your Heart
TTITLE12=Billy Boy Arnold - I Ain't Got You
TTITLE13=Co-Hearts - My Love
TTITLE14=Jimmy Reed - Bright Lights Big City
TTITLE15=Lyrics - Come On Home
TTITLE16=Eddie Taylor - Ride 'Em On Down
TTITLE17=L.C. McKinley - She's Five Feet Three
TTITLE18=Orioles - For All We Know
TTITLE19=Billy 'The Kid' Emerson - If You Woný Stay Home
TTITLE20=Memphis Slim - Stroll On Little Girl
TTITLE21=Rosco Gordon - No More Doggin'
TTITLE22=Preston Jackson and The Rhythm Aces - Be Mine
TTITLE23=Elmore James - It Hurts Me Too
TTITLE24=Spaniels - Goodnight Sweetheart Goodnight
EXTD=
EXTT0=
EXTT1=
EXTT2=
EXTT3=
EXTT4=
EXTT5=
EXTT6=
EXTT7=
EXTT8=
EXTT9=
EXTT10=
EXTT11=
EXTT12=
EXTT13=
EXTT14=
EXTT15=
EXTT16=
EXTT17=
EXTT18=
EXTT19=
EXTT20=
EXTT21=
EXTT22=
EXTT23=
EXTT24=
PLAYORDER=
